<svg width="37" height="37" viewBox="0 0 37 37" fill="none" xmlns="http://www.w3.org/2000/svg">
<path d="M19.9491 18.5001L27.4416 11.0076C27.61 10.811 27.6979 10.5581 27.688 10.2994C27.678 10.0407 27.5707 9.79537 27.3877 9.61233C27.2047 9.42929 26.9593 9.32206 26.7006 9.31207C26.4419 9.30208 26.189 9.39006 25.9924 9.55844L18.4999 17.0509L11.0074 9.54816C10.8108 9.37978 10.5579 9.2918 10.2992 9.30179C10.0406 9.31178 9.79519 9.41901 9.61215 9.60205C9.4291 9.7851 9.32187 10.0305 9.31188 10.2891C9.30189 10.5478 9.38988 10.8007 9.55825 10.9973L17.0508 18.5001L9.54797 25.9926C9.44038 26.0847 9.353 26.1981 9.29131 26.3256C9.22962 26.4531 9.19495 26.592 9.18949 26.7336C9.18402 26.8751 9.20787 27.0163 9.25954 27.1482C9.31121 27.2801 9.38959 27.3998 9.48975 27.5C9.58991 27.6002 9.7097 27.6785 9.84159 27.7302C9.97348 27.7819 10.1146 27.8057 10.2562 27.8003C10.3977 27.7948 10.5366 27.7601 10.6641 27.6984C10.7916 27.6367 10.905 27.5494 10.9971 27.4418L18.4999 19.9493L25.9924 27.4418C26.189 27.6102 26.4419 27.6981 26.7006 27.6881C26.9593 27.6782 27.2047 27.5709 27.3877 27.3879C27.5707 27.2048 27.678 26.9595 27.688 26.7008C27.6979 26.4421 27.61 26.1892 27.4416 25.9926L19.9491 18.5001Z" fill="black"/>
</svg>
