<svg width="72" height="72" viewBox="0 0 72 72" fill="none" xmlns="http://www.w3.org/2000/svg">
<circle cx="36" cy="36" r="36" fill="#AC7D3B"/>
<path d="M25 35C24.4477 35 24 35.4477 24 36C24 36.5523 24.4477 37 25 37V35ZM47.7071 36.7071C48.0976 36.3166 48.0976 35.6834 47.7071 35.2929L41.3431 28.9289C40.9526 28.5384 40.3195 28.5384 39.9289 28.9289C39.5384 29.3195 39.5384 29.9526 39.9289 30.3431L45.5858 36L39.9289 41.6569C39.5384 42.0474 39.5384 42.6805 39.9289 43.0711C40.3195 43.4616 40.9526 43.4616 41.3431 43.0711L47.7071 36.7071ZM25 37H47V35H25V37Z" fill="white"/>
</svg>
