<svg width="336" height="16" fill="none" xmlns="http://www.w3.org/2000/svg"><path d="M304.431.638c.197.155.54.034.762-.27l.026.034c.285.354.522-.147.628-.058.378.324.636.29 1.049.016.108-.072.613.336.971.398l.264.048c.336-.112.829-.17 1.096-.125.266.041 1.365.243 1.849.343l.38-.318c.045-.037.177-.044.248-.02.456.147.905.423 1.361.428l.367.005c.351-.246.597-.063.548.405l.703-.547.586-.457c.576.214 1.363.286 1.75.164.386-.126 1.546.466 1.96.437.413-.03 1.8.395 2.217.479l-.029-.504c-.002-.028.256-.12.301-.09l.537.347c.651-.107 1.38-.041 1.619.147.24.186 1.084-.21 1.295-.118.21.094 1.012.237 1.289.098.276-.137 1.819-.094 2.689-.064l.756.315c.244.102.716-.211 1.096-.247l.275-.027c.323.086.7.088.841.007l.015.012.695.552c.825-.292 1.598-.23 1.721.136.121.367.781 1.241.947 1.215.165-.026.617-.011.645.089.031.102-.169.487-.441.63-.271.145-.299 1.311-.735 1.92l.148.756.033.176c-.016.271-.121.426-.233.344-.112-.082-.411-.088-.515.1l.007.003c.755.304-.14.815.22 1.164.041.04.04.161-.003.199l-.573.508c-.024.385-.641.809-1.371.942l-.649-.491-.107-.083c-.421.176-1.104.329-1.516.341-.41.012-1.793-.095-2.176-.015l-.354.005-.347.005a9.687 9.687 0 00-.971-.128c-.162-.004-.77-.04-.968.016-.196.056-1.509.105-2.468.1-.96-.004-3.938-.023-4.492-.088-.55-.066-2.024.395-2.154.395l-.12.008-.726.054c-.78-.133-1.713-.162-2.073-.068-.363.094-1.535-.196-1.836-.154-.301.04-1.369.12-1.727.04-.36-.078-2.114.102-2.964.126h-.781c-.783 0-1.564.002-2.344 0-.483 0-1.236.151-1.388-.03-.355-.427-.829.17-1.093-.206-.051-.072-.335-.073-.498-.05-.362.052-.894.298-1.045.186l-.523-.385c-.385.273-.916.413-1.178.31-.266-.102-.842-.164-1.155-.254-.311-.091-1.265.269-1.535.123-.269-.146-1.217.345-1.517.4-.297.055-1.423-.407-1.983-.507l-.594.364-.426.257c-.832-.121-1.654-.284-1.828-.359-.173-.077-.965-.18-1.392-.25-.425-.071-2.065.572-2.812.852l-.528-.73c-.046-.066-.416-.077-.508-.003-.574.454-1.233-.31-1.824.11-.185.135-.542.185-.804.159-.498-.05-.984-.252-1.477-.259l-.429-.004c-.466.132-1.07.213-1.338.182-.269-.034-1.233-.051-1.458-.16-.228-.105-1.112.294-1.407.405-.295.112-1.08-.35-1.364-.238-.284.114-1.559.027-2.072-.054h-.468c-.455 0-.911.138-1.364.13l-.844-.014a29.668 29.668 0 00-3.321-.164l-.76.212-.664.184c-.68-.137-1.874-.232-2.654-.207h-7.216c-.721 0-1.444-.021-2.164.008l-.449.017a44.85 44.85 0 01-1.051.223c-.089.016-.76-.07-1.306-.163-.546-.089-3.604.135-3.823.063-.22-.07-.828-.05-1.052-.08-.224-.03-1.339.203-1.916.227h-9.381c-.594.007-2.355.052-3.916.101-1.563.048-6.159.372-6.751.577l-.176-.129-.448-.33c-.304.209-.917.201-1.361-.017l-.555.351c-.299.188-.929.034-1.409.034h-.782c-.858-.012-1.86.049-2.224.136-.365.083-1.664-.243-2.052-.469l-.276.35-.4.51c-.316-.285-.933-.469-1.37-.408-.438.06-1.871.15-2.211.127-.34-.022-1.683.187-2.304.099l-.568-.042-.596-.045c-.663.023-1.491.112-1.839.2-.348.087-1.368.147-1.912.36l-.63-.199c-.524-.164-1.188-.033-1.788-.033h-.602c-.661.007-1.482.13-1.825.272h-.621c-.339-.139-1.786-.219-3.215-.181-1.432.038-5.389.429-5.624.729l-.431-.43c-.097-.1-.673.151-1.04.189l-.353.037c-.393-.005-.997-.184-1.341-.396-.344-.215-1.584.352-1.98.356-.395.004-1.762.005-2.159 0-.397-.007-1.813.093-2.269.185l-.414.002c-.389.002-.782-.18-1.166-.161l-.744.036a65.812 65.812 0 00-2.776-.024c-.711.015-2.827.317-3.267.23l-.399-.018-.578-.03c-.631.072-1.411.072-1.732 0-.32-.072-1.411.37-1.84.418-.432.046-2.012-.009-2.508 0-.496.008-2.642.009-3.671.078-1.032.072-4.617.176-5.676.188-1.059.012-4.027.053-4.245.161-.219.11-1.195-.166-1.48-.203-.287-.04-1.334.348-1.836.378-.503.03-2.535-.012-3.363.001-.829.014-3.651-.008-4.448.079-.797.088-4.213.159-5.8.159h-2.947a235.67 235.67 0 00-3.801.014l-.327.272c-.306.258-.577-.565-1.006-.053l-.086.104c-.386-.063-.945-.03-1.242.076-.296.106-1.423-.282-2.096-.133l-.618.003-4.689.02c-5.159.001-9.919-.103-10.575-.234l-.502.45-.078.069c-.214-.031-.697-.098-1.073-.15-.376-.053-1.475-.037-1.607.064-.133.103-.71-.13-.869-.069-.157.062-.912.11-1.288.076l-.34-.038-1.636.094-.357.008c-.392.003-.779-.093-.858-.214-.08-.122-.816.126-1.16.137l-.321-.035c-.159-.016-.36-.193-.444-.155l-1.23.553a56.271 56.271 0 00-5.245-.273h-4.63c-.85.023-1.882-.013-2.29-.077-.408-.062-1.87.539-2.505.743l-.424-.607c-.05-.073-.384-.108-.49-.047l-.6.345c-.677-.148-1.794-.203-2.483-.123l-.627.048c-.716.055-1.443.013-2.164.013h-8.96c-.727.007-1.77-.055-2.317-.136-.548-.08-2.11.341-2.308.272-.198-.07-1.424-.156-2.275-.196-.85-.041-3.316.31-3.616.296-.301-.013-1.235-.025-1.453-.155-.219-.126-1.207.206-1.49.242-.284.037-1.218-.251-1.584-.162-.365.09-1.63.155-1.972.2-.344.046-1.474-.247-1.73-.193-.259.053-1.499.11-2.16.105-.663-.004-3.356-.064-4.519-.174l-.992.475-.18.086c-.283-.048-.99-.076-1.573-.06l-.372-.186-.608-.303c-.443.237-1.128.38-1.523.316l-.445.128-.48.138c-.622-.062-1.347-.076-1.611-.03-.265.045-2.2-.376-3.85-.48l-1.375.657-.49.234c-.549-.111-1.294-.196-1.657-.191-.364.005-1.612.014-1.97.04-.354.027-1.194-.14-1.343-.087-.148.051-.976.062-1.439.054-.461-.007-1.995-.038-2.376-.071-.381-.034-1.519.059-1.841-.031-.323-.09-1.062.32-1.155.24-.092-.079-.528-.276-.65-.168-.122.108-.866.303-1.258.313h-.36c-.661 0-1.323-.002-1.985.002l-.367.001c-.164-.234-.353-.429-.419-.43-.066 0-.258.102-.277.232-.021.129-.957.126-1.587.04l-.573-.003-.444-.004c-.523-.012-.87-.045-.773-.074.097-.028.29-.261.14-.437-.15-.176-.24-.837-.172-1.05.068-.213.12-.86-.095-.86s-.699.07-.656.154c.044.084.061.316-.045.346-.108.03-.44-.128-.634-.282-.193-.152-1.138-.475-1.324-.648-.185-.173-.525-.885-.157-.965.37-.08.792.847 1.04 1.029h.305c.106.002.246-.15.308-.256l.035-.06c-.07-.106-.201-.168-.295-.136-.093.03-.396.026-.396-.105 0-.134.306-.57.676-.66.372-.09 1.435-.49 1.435-.665 0-.176.13-.731.29-.535.158.198.794.522 1.05.277l.088-.224c.113-.299.19-.233.432-.092l.17.098c.266.012.98.026 1.586.033.605.004 2.056-.48 1.924-.533-.135-.052.321-.388 1.303-.631l1.061.389c.203.075.416.148.632.17l.155.015c.262-.073.35-.277.193-.454-.157-.179-.417-.684-.232-.735l.155.019c.181.022.414.21.51.165l.603-.288c.37.343.793.638.937.656.144.016.738-.013.596-.143-.14-.129.003-.434.299-.66.296-.226 1.399-.27 1.603-.249.205.022 1.037-.025 1.338.01.303.037 1.198-.028 1.616.085.416.113 1.255-.64 1.482-.615.226.023.65.455.69.507.042.052.207.114.276.022l.002-.082.01-.804c.696.121 1.634.378 2.082.57l.564-.27.508-.246c.701-.074 1.513-.229 1.801-.34.29-.114.988.367 1.121.32l.042-.073.078-.135c.155-.045.58-.006.942.085l.332-.003.488-.006c.516-.109 1.11-.23 1.321-.269.21-.039 1.141-.083 1.544-.127.401-.042 1.81-.125 2.235-.064.424.062 1.802-.362 2.221-.4.417-.038 1.628.167 1.823.043.192-.124.962.124 1.152-.001.19-.127.842.118.96.022.117-.094.55-.266.688-.16.14.107.684.32.926.254.242-.065 1.188-.124 1.567-.094.379.034 1.51-.085 1.793-.061.282.026 1.176-.081 1.383-.16.208-.077 1.055-.18 1.445-.255.39-.074 1.542.447 1.788.526.247.077.54-.548.672-.604l.074.032.562.246c.57-.18 1.088-.356 1.15-.388l.04.012c.313.091.668.318.924.258l.305-.071c.267.053.615.019.773-.075.158-.094.923-.01 1.263.11l.323.059.218.038c.254-.045.748-.105 1.1-.132.348-.027 1.6-.006 2.054.233l.533-.392c.305-.222.93.144 1.332-.216.039-.034.324.139.507.18l.8.187c.884-.1 1.77-.292 1.97-.424.2-.133.927.103 1.088-.053.16-.154.794.241.899.277.105.035.583.064.944.136.359.072 1.696-.248 2.336-.308l.47.39.07.06c.195.036.49-.06.656-.219.165-.156.595-.28.867-.319.273-.037 1.59.063 2.3.192l.565-.482c.143-.122.623.058.87-.035l.557-.21c.48.226 1.034.426 1.233.448.197.022.93-.126 1.196-.038l.241.112c.311.144.459-.56.856-.101.038.043.446-.179.683-.182l.336-.004c.364.083.767.181.896.22.13.04.923-.057 1.403-.027.48.034 1.736-.43 1.864-.376.13.055.774.358 1.113.59l.335-.452.508-.687c.744.288 1.696.592 2.114.677.42.083 1.827-.254 2.152-.376.326-.12 1.22-.126 1.54-.201l.21.125.233.136c.199.216.575.216.837.003l.216-.17.038-.029c.128-.04.361.01.517.118.156.105.73.304.896.185.167-.12 1.53-.116 1.799-.048.27.067.905.027 1.166.086.263.058.85-.085 1.068-.07.218.015 1.004-.083 1.279-.215.276-.134 1.457.273 2.012.35l.359-.43c.038-.045.232-.017.349-.004l.733.095c.803.093 1.768.026 2.142-.152.376-.176 1.77.31 2.246.297l.382-.085.354-.079a9.533 9.533 0 001.427-.173c.391-.082 1.424.383 1.559.418l.092-.034 1.057-.388c1.223.055 2.475.094 2.781.088.307-.006 1.447.084 1.931.367l.417-.608.184-.268c.512.13 1.051.36 1.194.51.144.152.92-.24 1.129-.284.209-.045.872.266 1.075.291l.094-.068.502-.368c.489.217 1.173.436 1.517.487.345.052 1.327-.174 1.568-.283.24-.108 1.068.115 1.195.08.125-.035.578-.24.717-.362.137-.124.673.073.803-.072l.405.165.447.183a60.144 60.144 0 001.988-.355c.425-.088 1.552.146 1.742.11.19-.04.967.054 1.32.15l.328.026.12.01c.186-.179.371-.184.415-.01.045.175.395.605.659.467.262-.136 1.092-.52 1.306-.61.215-.09 1.72-.106 1.986-.057.265.05 1.125-.313 1.456-.342.332-.032 1.457.017 1.745.113.288.096 1.736-.037 2.484-.048l.463-.24.414-.214c.262.173.58.393.708.488.126.094 1.252-.087 1.828-.237.575-.15 2.35-.112 2.588-.037.239.075 1.136.08 1.471.023.335-.056 1.511-.139 1.86-.112.348.027 1.281-.206 1.473-.283.191-.08.728.216.792.236l.047-.013c.315-.092.617-.25.937-.275.282-.02.598.183.868.144l.412-.06c.46-.033 1.082-.113 1.379-.174.296-.062.985.243 1.051.114l.093-.092.069-.067c.126-.036.6.002 1.056.083.455.083 2.482-.145 2.826-.069l.274.113.348.143c.286-.159.782-.204 1.102-.103l.233-.068.408-.12c.404-.236.928-.365 1.163-.289.234.079 1.114.05 1.409-.04.295-.09.892-.066 1.137-.105.244-.04.927.069 1.14.129.214.059.839-.065.923.025.083.093.612.259.983.158.37-.1 2.553-.053 3.304-.076.753-.026 2.156-.398 2.444-.467l.374.085.72.16a98.73 98.73 0 012.144-.03l.323-.118.417-.153c.55-.01 1.222.033 1.492.096.272.062 1.214-.066 1.448-.026l.218.043.205.039c.216.035.96 0 1.652-.076l.617-.091.526-.079a57.732 57.732 0 011.158-.13c.051-.003.411.077.731.13.319.054 1.353.112 1.62.188.267.075.935.331 1.027.199.093-.133.553-.292.749-.299.193-.007.904-.322 1.309-.342.407-.02 2.011-.048 2.648-.075.638-.03 2.571.131 2.862.183.29.05 1.14-.28 1.334-.22.196.059.562.05.69.085.125.036 1.058-.119 1.821-.287l.708.071.519.05c.429-.182 1.11-.23 1.514-.106l.378.024.384.027c.426-.126 1.001-.079 1.276.104.276.182 1.497-.468 2.138-.578l.539.34c.047.03.244-.036.304-.1l.096-.1c.056-.14.277-.309.492-.376.213-.065.96.218 1.24.291.279.072 1.32.033 1.592.102.269.066.857-.042 1.061-.067.206-.027 1.132.081 1.512.144.38.062 1.714-.21 2.146-.128l.169-.125c.543-.4.729.286 1.065.174l.351-.116c.333-.235.851-.47 1.148-.524.299-.053 1.409.066 1.7.119.289.052 1.319.029 1.596-.06.277-.087 1.275.086 1.543.186.266.102 1.289-.002 1.826-.102l.559.19c.389.135.956.115 1.261-.3l1.148-.169c1.195.387 2.442.307 3.611.055.455-.1.869.535 1.32-.068.139-.183.896-.09 1.365-.063l.263.016c.281.12.615.179.744.13a5.3 5.3 0 00.735-.337c.265-.152.994.383 1.244.352.248-.028.857-.274.976-.301.121-.028.669.233.937.392h.248c.252.003.495-.193.757-.26l.436-.11c.454.142.934.286 1.066.32.132.034.468-.08.628-.163.158-.082.726.113.869.084l.107-.063c.145-.085.272-.299.385-.29.307.026.611.214.903.198.378-.021.737-.22 1.117-.263l.337-.034c.367.066.902.029 1.188-.083l.294.207.193.133c.324.021.968.072 1.429.112.464.043 1.87-.232 2.174-.104.304.128 1.998-.057 3.076.152l1.008-.379c.296-.11.772-.114 1.058.006l.491.204c.464-.126 1.072-.35 1.349-.5l.251.002c.248.004.5.178.741.291l.139.067c.129.087.951.213 1.824.278.875.066 3.081-.594 3.137-.57.056.026.164.143.238.196.073.053.753-.015 1.152-.071.4-.056 1.75-.16 2.114-.124.363.039 1.567.399 1.867.524.303.127 1.269-.182 1.504-.025.236.156 1.313-.392 1.8-.588l.548.432.239.188c.72-.175 1.85-.332 2.513-.348l.599.028.622.03c.671.14 1.575.044 2.008-.211l.578.402c.446.313.964-.578 1.565-.147.5.362.94.287 1.371-.076.028-.025.125-.02.174 0l.408.146c.452.05.966.13 1.142.178.176.05.982-.231 1.369-.316l.333.015.688.03a258.2 258.2 0 002.803-.072l.721.021.451.013a21.6 21.6 0 001.345.276c.248.039.86-.14 1.055-.195.196-.054.82.204.992.23l.027-.042.369-.553c.427.299 1.672.455 1.867.61z" fill="#AC7D3B"/></svg>