<svg width="336" height="16" viewBox="0 0 336 16" fill="none" xmlns="http://www.w3.org/2000/svg">
<path d="M304.431 0.638494C304.628 0.79316 304.971 0.671826 305.193 0.367693C305.193 0.367693 305.193 0.367695 305.219 0.402495C305.504 0.755695 305.741 0.254627 305.847 0.343694C306.225 0.667694 306.483 0.633295 306.896 0.359828C307.004 0.287961 307.509 0.695828 307.867 0.758228C308.131 0.806228 308.131 0.806227 308.131 0.806227C308.467 0.694227 308.96 0.636894 309.227 0.681161C309.493 0.722361 310.592 0.923959 311.076 1.02396C311.076 1.02396 311.076 1.02396 311.456 0.706226C311.501 0.66916 311.633 0.662492 311.704 0.685426C312.16 0.833292 312.609 1.10929 313.065 1.11449C313.432 1.11876 313.432 1.11876 313.432 1.11876C313.783 0.872892 314.029 1.05569 313.98 1.52396C313.98 1.52396 313.98 1.52396 314.683 0.977027C315.269 0.519694 315.269 0.519695 315.269 0.519695C315.845 0.734362 316.632 0.806226 317.019 0.683826C317.405 0.558226 318.565 1.15049 318.979 1.12129C319.392 1.09063 320.779 1.51556 321.196 1.59996C321.196 1.59996 321.196 1.59996 321.167 1.09583C321.165 1.06769 321.423 0.97596 321.468 1.00623C322.005 1.35303 322.005 1.35303 322.005 1.35303C322.656 1.24636 323.385 1.31196 323.624 1.49996C323.864 1.68636 324.708 1.29063 324.919 1.38223C325.129 1.47596 325.931 1.61876 326.208 1.47969C326.484 1.34263 328.027 1.38636 328.897 1.41556C328.897 1.41556 328.897 1.41556 329.653 1.73063C329.897 1.83329 330.369 1.51969 330.749 1.48383C331.024 1.45729 331.024 1.45729 331.024 1.45729C331.347 1.54263 331.724 1.54529 331.865 1.46396C331.865 1.46396 331.865 1.46396 331.88 1.47596C332.575 2.02756 332.575 2.02756 332.575 2.02756C333.4 1.73583 334.173 1.79729 334.296 2.16396C334.417 2.53063 335.077 3.40516 335.243 3.37863C335.408 3.35303 335.86 3.36769 335.888 3.46769C335.919 3.57023 335.719 3.95463 335.447 4.09836C335.176 4.24263 335.148 5.40929 334.712 6.01876C334.712 6.01876 334.712 6.01876 334.86 6.77449C334.893 6.95049 334.893 6.95049 334.893 6.95049C334.877 7.22129 334.772 7.37596 334.66 7.29423C334.548 7.21196 334.249 7.20623 334.145 7.39423C334.145 7.39423 334.145 7.39423 334.152 7.39729C334.907 7.70103 334.012 8.21196 334.372 8.56089C334.413 8.60103 334.412 8.72236 334.369 8.75983C333.796 9.26769 333.796 9.26769 333.796 9.26769C333.772 9.65303 333.155 10.077 332.425 10.2104C332.425 10.2104 332.425 10.2104 331.776 9.71876C331.669 9.63583 331.669 9.63583 331.669 9.63583C331.248 9.81196 330.565 9.96503 330.153 9.97703C329.743 9.98903 328.36 9.88223 327.977 9.96249C327.977 9.96249 327.977 9.96249 327.623 9.96663C327.276 9.97183 327.276 9.97183 327.276 9.97183C326.905 9.90676 326.468 9.84889 326.305 9.84369C326.143 9.83956 325.535 9.80356 325.337 9.85983C325.141 9.91556 323.828 9.96503 322.869 9.96089C321.909 9.95569 318.931 9.93689 318.377 9.87183C317.827 9.80623 316.353 10.2666 316.223 10.2666C316.223 10.2666 316.223 10.2666 316.103 10.2745C315.377 10.3292 315.377 10.3292 315.377 10.3292C314.597 10.1958 313.664 10.1666 313.304 10.2609C312.941 10.3546 311.769 10.065 311.468 10.1068C311.167 10.1464 310.099 10.2276 309.741 10.1478C309.381 10.0692 307.627 10.2489 306.777 10.2734C306.777 10.2734 306.777 10.2734 305.996 10.2734C305.213 10.2734 304.432 10.2745 303.652 10.2734C303.169 10.2734 302.416 10.424 302.264 10.2426C301.909 9.81556 301.435 10.413 301.171 10.0369C301.12 9.96503 300.836 9.96396 300.673 9.98636C300.311 10.0385 299.779 10.2854 299.628 10.1729C299.105 9.78796 299.105 9.78796 299.105 9.78796C298.72 10.0609 298.189 10.201 297.927 10.0984C297.661 9.99583 297.085 9.93436 296.772 9.84369C296.461 9.75303 295.507 10.113 295.237 9.96663C294.968 9.82129 294.02 10.312 293.72 10.3677C293.423 10.4224 292.297 9.95983 291.737 9.85983C291.737 9.85983 291.737 9.85983 291.143 10.224C290.717 10.4812 290.717 10.4812 290.717 10.4812C289.885 10.3598 289.063 10.1973 288.889 10.1224C288.716 10.0453 287.924 9.94116 287.497 9.87183C287.072 9.80103 285.432 10.4437 284.685 10.724C284.685 10.724 284.685 10.724 284.157 9.99316C284.111 9.92756 283.741 9.91716 283.649 9.99063C283.075 10.4453 282.416 9.68116 281.825 10.101C281.64 10.2358 281.283 10.2864 281.021 10.2598C280.523 10.2104 280.037 10.0078 279.544 10.001C279.115 9.99729 279.115 9.99729 279.115 9.99729C278.649 10.1292 278.045 10.2104 277.777 10.1786C277.508 10.1453 276.544 10.1276 276.319 10.0197C276.091 9.91449 275.207 10.313 274.912 10.424C274.617 10.5358 273.832 10.0734 273.548 10.1864C273.264 10.3 271.989 10.213 271.476 10.1317C271.476 10.1317 271.476 10.1317 271.008 10.1317C270.553 10.1317 270.097 10.2702 269.644 10.2625C268.8 10.2478 268.8 10.2478 268.8 10.2478C267.877 10.1396 266.383 10.0666 265.479 10.0838C265.479 10.0838 265.479 10.0838 264.719 10.2958C264.055 10.4797 264.055 10.4797 264.055 10.4797C263.375 10.3426 262.181 10.2478 261.401 10.2734C261.401 10.2734 261.401 10.2734 260.68 10.2734C259.959 10.2734 259.237 10.2734 258.515 10.2734C257.793 10.2734 257.072 10.2734 256.351 10.2734C255.629 10.2734 254.908 10.2734 254.185 10.2734C253.464 10.2734 252.741 10.2516 252.021 10.2812C251.572 10.2984 251.572 10.2984 251.572 10.2984C251.083 10.4068 250.608 10.5062 250.521 10.5213C250.432 10.5369 249.761 10.4505 249.215 10.3582C248.669 10.2692 245.611 10.4932 245.392 10.4213C245.172 10.3505 244.564 10.3718 244.34 10.3412C244.116 10.3104 243.001 10.5437 242.424 10.5677C242.424 10.5677 242.424 10.5677 241.883 10.5677C241.341 10.5677 240.8 10.5677 240.26 10.5677C239.657 10.5677 239.056 10.5677 238.455 10.5677C237.915 10.5677 237.373 10.5677 236.831 10.5677C236.291 10.5677 235.749 10.5677 235.208 10.5677C234.667 10.5677 234.125 10.5677 233.585 10.5677C233.043 10.5677 233.043 10.5677 233.043 10.5677C232.449 10.5745 230.688 10.6197 229.127 10.6692C227.564 10.7172 222.968 11.0412 222.376 11.2464C222.376 11.2464 222.376 11.2464 222.2 11.1172C221.752 10.7864 221.752 10.7864 221.752 10.7864C221.448 10.9958 220.835 10.988 220.391 10.7702C220.391 10.7702 220.391 10.7702 219.836 11.1213C219.537 11.3093 218.907 11.1546 218.427 11.1546C217.645 11.1546 217.645 11.1546 217.645 11.1546C216.787 11.1426 215.785 11.2036 215.421 11.2906C215.056 11.3745 213.757 11.0478 213.369 10.8224C213.369 10.8224 213.369 10.8224 213.093 11.1729C212.693 11.6822 212.693 11.6822 212.693 11.6822C212.377 11.3973 211.76 11.213 211.323 11.2745C210.885 11.3344 209.452 11.424 209.112 11.401C208.772 11.3786 207.429 11.588 206.808 11.5C206.808 11.5 206.808 11.5 206.24 11.4582C205.644 11.413 205.644 11.413 205.644 11.413C204.981 11.4358 204.153 11.5249 203.805 11.613C203.457 11.7 202.437 11.7598 201.893 11.9729C201.893 11.9729 201.893 11.9729 201.263 11.7745C200.739 11.6104 200.075 11.7412 199.475 11.7412C198.873 11.7412 198.873 11.7412 198.873 11.7412C198.212 11.7478 197.391 11.8702 197.048 12.013C197.048 12.013 197.048 12.013 196.737 12.013C196.427 12.013 196.427 12.013 196.427 12.013C196.088 11.8745 194.641 11.7942 193.212 11.8317C191.78 11.8702 187.823 12.2609 187.588 12.5609C187.588 12.5609 187.588 12.5609 187.157 12.1317C187.06 12.0317 186.484 12.2822 186.117 12.3197C185.764 12.3573 185.764 12.3573 185.764 12.3573C185.371 12.3521 184.767 12.1729 184.423 11.9609C184.079 11.7464 182.839 12.313 182.443 12.3172C182.048 12.3213 180.681 12.3224 180.284 12.3172C179.887 12.3104 178.471 12.4104 178.015 12.5025C178.015 12.5025 178.015 12.5025 177.601 12.5036C177.212 12.5062 176.819 12.324 176.435 12.3426C175.691 12.3786 175.691 12.3786 175.691 12.3786C174.876 12.3521 173.627 12.3412 172.915 12.3546C172.204 12.3702 170.088 12.6718 169.648 12.5849C169.648 12.5849 169.648 12.5849 169.249 12.5666C168.671 12.5369 168.671 12.5369 168.671 12.5369C168.04 12.6093 167.26 12.6093 166.939 12.5369C166.619 12.465 165.528 12.9068 165.099 12.9546C164.667 13.001 163.087 12.9464 162.591 12.9546C162.095 12.9625 159.949 12.964 158.92 13.0333C157.888 13.1052 154.303 13.2093 153.244 13.2213C152.185 13.2333 149.217 13.2745 148.999 13.3822C148.78 13.4916 147.804 13.2156 147.519 13.1786C147.232 13.1396 146.185 13.5265 145.683 13.5573C145.18 13.5864 143.148 13.5453 142.32 13.5582C141.491 13.5718 138.669 13.5505 137.872 13.6369C137.075 13.7249 133.659 13.7958 132.072 13.7958C132.072 13.7958 132.072 13.7958 130.629 13.7958C129.125 13.7958 129.125 13.7958 129.125 13.7958C127.472 13.7932 125.763 13.7984 125.324 13.8104C125.324 13.8104 125.324 13.8104 124.997 14.0822C124.691 14.3396 124.42 13.5172 123.991 14.0292C123.905 14.1333 123.905 14.1333 123.905 14.1333C123.519 14.0702 122.96 14.1036 122.663 14.2093C122.367 14.3145 121.24 13.9265 120.567 14.076C120.567 14.076 120.567 14.076 119.949 14.0786C115.26 14.0984 115.26 14.0984 115.26 14.0984C110.101 14.1 105.341 13.9958 104.685 13.865C104.685 13.865 104.685 13.865 104.183 14.3145C104.105 14.3838 104.105 14.3838 104.105 14.3838C103.891 14.353 103.408 14.2864 103.032 14.2333C102.656 14.1812 101.557 14.1973 101.425 14.2984C101.292 14.401 100.715 14.1677 100.556 14.2292C100.399 14.2906 99.644 14.3396 99.268 14.3052C99.268 14.3052 99.2681 14.3052 98.9281 14.2666L97.2921 14.3609C96.9347 14.3692 96.9347 14.3692 96.9347 14.3692C96.5427 14.3718 96.1561 14.276 96.0774 14.1546C95.9974 14.0333 95.2614 14.2812 94.9174 14.2916C94.9174 14.2916 94.9174 14.2916 94.596 14.2573C94.4374 14.2412 94.236 14.064 94.152 14.1025C92.9214 14.6546 92.9214 14.6546 92.9214 14.6546C91.4907 14.4984 89.1321 14.376 87.6774 14.3822C87.6774 14.3822 87.6774 14.3822 86.3547 14.3822C85.512 14.3822 84.6707 14.3822 83.8281 14.3822C83.0467 14.3822 83.0468 14.3822 83.0468 14.3822C82.1961 14.4052 81.1654 14.3692 80.7574 14.3052C80.3494 14.2426 78.8867 14.8437 78.252 15.0478C78.252 15.0478 78.2521 15.0478 77.8281 14.4412C77.7774 14.3677 77.4441 14.3333 77.3387 14.3942C76.7374 14.7385 76.7374 14.7385 76.7374 14.7385C76.0614 14.5906 74.944 14.5358 74.2547 14.6156C74.2547 14.6156 74.2547 14.6156 73.6281 14.664C72.9121 14.7188 72.1854 14.677 71.4641 14.677C70.8027 14.677 70.1414 14.677 69.4801 14.677C68.7588 14.677 68.0374 14.677 67.3161 14.677C66.6548 14.677 65.9921 14.677 65.3307 14.677C64.6081 14.677 63.8867 14.677 63.1654 14.677C62.504 14.677 62.504 14.677 62.504 14.677C61.7774 14.6838 60.7347 14.6224 60.1867 14.5412C59.6387 14.4609 58.0774 14.8822 57.8787 14.813C57.6814 14.7437 56.4547 14.6573 55.604 14.6172C54.7547 14.576 52.288 14.9265 51.988 14.913C51.6867 14.9 50.7534 14.888 50.5347 14.7582C50.316 14.6317 49.3281 14.964 49.0454 15C48.7614 15.0369 47.8267 14.7489 47.4614 14.8385C47.0961 14.9276 45.8307 14.9932 45.4894 15.0385C45.1454 15.0838 44.0147 14.7906 43.7587 14.8453C43.5001 14.8984 42.26 14.9546 41.5987 14.9505C40.936 14.9464 38.2428 14.8864 37.0801 14.776C37.0801 14.776 37.08 14.776 36.088 15.2505C35.908 15.3369 35.9081 15.3369 35.9081 15.3369C35.6254 15.289 34.9174 15.2609 34.3347 15.277C34.3347 15.277 34.3347 15.277 33.9627 15.0906C33.3547 14.788 33.3547 14.788 33.3547 14.788C32.912 15.0249 32.2267 15.1677 31.832 15.1036C31.832 15.1036 31.8321 15.1036 31.3867 15.2317C30.9067 15.3702 30.9067 15.3702 30.9067 15.3702C30.2854 15.3078 29.56 15.2942 29.296 15.3396C29.0307 15.3854 27.0961 14.964 25.4468 14.8598C25.4468 14.8598 25.4467 14.8598 24.0707 15.5172C23.5801 15.7505 23.5801 15.7505 23.5801 15.7505C23.0321 15.6396 22.2867 15.5546 21.924 15.5598C21.56 15.565 20.312 15.5745 19.9547 15.6C19.6 15.6265 18.7601 15.4609 18.6108 15.513C18.4628 15.564 17.6348 15.5745 17.1721 15.5666C16.7108 15.5598 15.1774 15.5292 14.796 15.4958C14.4147 15.4625 13.2774 15.5546 12.9547 15.465C12.632 15.3745 11.8934 15.7854 11.8001 15.7052C11.7081 15.6265 11.2721 15.4292 11.1507 15.5369C11.0281 15.6453 10.2841 15.8396 9.89207 15.8505C9.89207 15.8505 9.89205 15.8505 9.53205 15.8505C8.87071 15.8505 8.20943 15.8478 7.54676 15.8521C7.18009 15.853 7.18009 15.853 7.18009 15.853C7.01609 15.6188 6.82674 15.424 6.76141 15.4224C6.69474 15.4224 6.50273 15.5249 6.48407 15.6546C6.46273 15.7838 5.52675 15.7812 4.89741 15.6958C4.89741 15.6958 4.89737 15.6958 4.32404 15.6916C3.88004 15.688 3.88009 15.688 3.88009 15.688C3.35743 15.676 3.00939 15.6426 3.10672 15.6145C3.20405 15.5864 3.39609 15.353 3.24676 15.177C3.09743 15.001 3.00676 14.3396 3.07476 14.1276C3.14276 13.9145 3.19476 13.2677 2.98009 13.2677C2.76543 13.2677 2.28137 13.3369 2.32404 13.4213C2.36804 13.5052 2.38539 13.7369 2.27873 13.7666C2.17073 13.7973 1.83873 13.6385 1.64539 13.4854C1.45206 13.3333 0.506704 13.0104 0.32137 12.8369C0.136037 12.664 -0.203921 11.9521 0.164079 11.8718C0.534745 11.7916 0.956052 12.7188 1.20405 12.901C1.20405 12.901 1.20406 12.901 1.50939 12.901C1.61472 12.9025 1.75473 12.7505 1.8174 12.6453C1.85207 12.5849 1.85203 12.5849 1.85203 12.5849C1.7827 12.4786 1.65071 12.4172 1.55737 12.4489C1.46404 12.4797 1.16141 12.4745 1.16141 12.3437C1.16141 12.2104 1.46672 11.7734 1.83739 11.6838C2.20939 11.5942 3.27209 11.1932 3.27209 11.0188C3.27209 10.8426 3.40274 10.288 3.56141 10.4838C3.72008 10.6822 4.35606 11.0062 4.61206 10.7609C4.61206 10.7609 4.61208 10.7609 4.70008 10.5369C4.81341 10.2385 4.88938 10.3036 5.13205 10.4453C5.30138 10.5426 5.30138 10.5426 5.30138 10.5426C5.56805 10.5546 6.2827 10.5692 6.88804 10.576C7.49337 10.5797 8.94406 10.0958 8.81206 10.0426C8.67739 9.99063 9.1334 9.65463 10.1147 9.41196C10.1147 9.41196 10.1147 9.41196 11.1761 9.80103C11.3787 9.87596 11.5921 9.94889 11.8081 9.97023C11.9628 9.98636 11.9627 9.98636 11.9627 9.98636C12.2254 9.91303 12.3134 9.70929 12.1561 9.53169C11.9987 9.35303 11.7387 8.84783 11.924 8.79729C11.924 8.79729 11.9241 8.79729 12.0787 8.81556C12.2601 8.83849 12.4934 9.02649 12.5894 8.98116C13.1921 8.69316 13.1921 8.69316 13.1921 8.69316C13.5627 9.03583 13.9854 9.33063 14.1294 9.34889C14.2734 9.36503 14.8667 9.33583 14.7254 9.20623C14.5841 9.07703 14.728 8.77183 15.024 8.54636C15.32 8.31969 16.4227 8.27596 16.6267 8.29729C16.832 8.31876 17.664 8.27183 17.9654 8.30783C18.268 8.34369 19.1627 8.27863 19.5814 8.39156C19.9974 8.50516 20.836 7.75156 21.0627 7.77703C21.2894 7.79996 21.7121 8.23169 21.7534 8.28383C21.7947 8.33583 21.96 8.39836 22.0294 8.30623C22.0294 8.30623 22.0294 8.30623 22.0307 8.22396C22.0414 7.41969 22.0414 7.41969 22.0414 7.41969C22.7374 7.54116 23.6747 7.79836 24.1227 7.99063C24.1227 7.99063 24.1227 7.99063 24.6867 7.71969C25.1947 7.47449 25.1947 7.47449 25.1947 7.47449C25.8961 7.39996 26.708 7.24529 26.996 7.13329C27.2854 7.01969 27.9841 7.50103 28.1174 7.45463C28.1174 7.45463 28.1174 7.45463 28.1587 7.38116C28.2374 7.24636 28.2374 7.24636 28.2374 7.24636C28.3921 7.20103 28.8174 7.2401 29.1787 7.33063C29.1787 7.33063 29.1788 7.33063 29.5108 7.32756C29.9988 7.32236 29.9987 7.32236 29.9987 7.32236C30.5147 7.21303 31.1081 7.09156 31.3201 7.05303C31.5307 7.01449 32.4614 6.97023 32.8641 6.92649C33.2654 6.88383 34.6734 6.80103 35.0987 6.86249C35.5227 6.92396 36.9014 6.49996 37.3201 6.46249C37.7374 6.42396 38.9481 6.62916 39.1427 6.50516C39.3347 6.38116 40.1054 6.62916 40.2947 6.50356C40.4841 6.37703 41.1374 6.62236 41.2547 6.52649C41.372 6.43169 41.8041 6.25983 41.9427 6.36663C42.0827 6.47289 42.6267 6.68636 42.8694 6.61969C43.1107 6.55463 44.0574 6.49583 44.4361 6.52649C44.8147 6.55983 45.9467 6.44116 46.2294 6.46503C46.5107 6.49063 47.4054 6.38383 47.6121 6.30516C47.8201 6.22756 48.6667 6.12489 49.0574 6.05049C49.4467 5.97596 50.5987 6.49729 50.8454 6.57596C51.0921 6.65303 51.3841 6.02756 51.5174 5.97183C51.5174 5.97183 51.5174 5.97183 51.5907 6.00356C52.1534 6.25049 52.1534 6.25049 52.1534 6.25049C52.7227 6.06916 53.2414 5.89423 53.3027 5.86249C53.3027 5.86249 53.3027 5.86249 53.3427 5.87449C53.6561 5.96503 54.0107 6.19156 54.2667 6.13169C54.5721 6.06089 54.5721 6.06089 54.5721 6.06089C54.8387 6.11449 55.1867 6.07969 55.3454 5.98636C55.5027 5.89156 56.2681 5.97596 56.6081 6.09583C56.6081 6.09583 56.6081 6.09583 56.9307 6.15463C57.1494 6.19316 57.1494 6.19316 57.1494 6.19316C57.4028 6.14783 57.8974 6.08796 58.2481 6.06089C58.5974 6.03436 59.8494 6.05463 60.3027 6.29423C60.3027 6.29423 60.3027 6.29423 60.8361 5.90249C61.1414 5.67969 61.7667 6.04636 62.168 5.68636C62.2067 5.65209 62.4921 5.82489 62.6748 5.86663C63.4748 6.05303 63.4748 6.05303 63.4748 6.05303C64.3588 5.95303 65.2454 5.76089 65.4441 5.62916C65.6454 5.49583 66.3721 5.73169 66.5334 5.57596C66.6934 5.42236 67.3267 5.81716 67.432 5.85303C67.5374 5.88796 68.0147 5.91716 68.3761 5.98903C68.7347 6.06089 70.0721 5.74116 70.7121 5.68116C70.7121 5.68116 70.7121 5.68116 71.1828 6.07183C71.2521 6.13063 71.252 6.13063 71.252 6.13063C71.4467 6.16663 71.7428 6.07023 71.9081 5.91196C72.0734 5.75569 72.5027 5.63169 72.7747 5.59316C73.0481 5.55569 74.3654 5.65569 75.0748 5.78543C75.0748 5.78543 75.0747 5.78543 75.6401 5.3025C75.7827 5.18116 76.2627 5.36089 76.5094 5.26769C77.0667 5.05823 77.0667 5.05823 77.0667 5.05823C77.5467 5.28383 78.1014 5.48383 78.3001 5.50623C78.4974 5.52756 79.2294 5.37969 79.496 5.46769C79.496 5.46769 79.496 5.46769 79.7374 5.57969C80.048 5.72396 80.196 5.01969 80.5934 5.47863C80.6307 5.52236 81.0387 5.29996 81.2761 5.29729C81.6121 5.29316 81.6121 5.29316 81.6121 5.29316C81.9761 5.37596 82.3788 5.47449 82.5081 5.51303C82.6374 5.55209 83.4308 5.45569 83.9108 5.48636C84.3908 5.51969 85.6467 5.05569 85.7747 5.11036C85.9041 5.16503 86.5494 5.46769 86.888 5.69996C86.888 5.69996 86.8881 5.69996 87.2227 5.24783C87.7307 4.56089 87.7307 4.56089 87.7307 4.56089C88.4747 4.84889 89.4267 5.15303 89.8454 5.23849C90.2654 5.32129 91.6721 4.98383 91.9974 4.86249C92.3227 4.74263 93.2161 4.73583 93.5374 4.66089C93.5374 4.66089 93.5374 4.6609 93.7468 4.78636C93.9801 4.92236 93.9801 4.92236 93.9801 4.92236C94.1788 5.13849 94.5547 5.1385 94.8174 4.9249C94.8174 4.9249 94.8174 4.92489 95.0334 4.75569C95.0707 4.72649 95.0707 4.72649 95.0707 4.72649C95.1987 4.68543 95.432 4.73689 95.588 4.84369C95.744 4.94889 96.3187 5.14783 96.4841 5.02916C96.6507 4.90929 98.0134 4.91303 98.2828 4.98116C98.5534 5.04783 99.1881 5.00783 99.4494 5.06663C99.7121 5.12489 100.299 4.98223 100.517 4.99729C100.735 5.01196 101.521 4.91449 101.796 4.78223C102.072 4.64783 103.253 5.05463 103.808 5.13169C103.808 5.13169 103.808 5.13169 104.167 4.70249C104.205 4.65729 104.399 4.68543 104.516 4.69836C105.249 4.79316 105.249 4.79316 105.249 4.79316C106.052 4.88636 107.017 4.81876 107.391 4.64116C107.767 4.46503 109.161 4.95049 109.637 4.93849C109.637 4.93849 109.637 4.93849 110.019 4.85303C110.373 4.77449 110.373 4.77449 110.373 4.77449C110.768 4.76249 111.409 4.68543 111.8 4.60103C112.191 4.51876 113.224 4.98383 113.359 5.01876C113.359 5.01876 113.359 5.01876 113.451 4.98542C114.508 4.59729 114.508 4.59729 114.508 4.59729C115.731 4.65209 116.983 4.69063 117.289 4.68543C117.596 4.67863 118.736 4.76916 119.22 5.05209C119.22 5.05209 119.22 5.05209 119.637 4.44369C119.821 4.17596 119.821 4.17596 119.821 4.17596C120.333 4.30516 120.872 4.53583 121.015 4.68636C121.159 4.83849 121.935 4.44636 122.144 4.4025C122.353 4.3573 123.016 4.66769 123.219 4.69316C123.219 4.69316 123.219 4.69316 123.313 4.6249C123.815 4.2573 123.815 4.25729 123.815 4.25729C124.304 4.47449 124.988 4.69316 125.332 4.74369C125.677 4.79583 126.659 4.57023 126.9 4.46089C127.14 4.35303 127.968 4.57596 128.095 4.54116C128.22 4.50623 128.673 4.30103 128.812 4.17863C128.949 4.05463 129.485 4.25156 129.615 4.10676C129.615 4.10676 129.615 4.10676 130.02 4.27183C130.467 4.45463 130.467 4.45463 130.467 4.45463C131.135 4.34783 132.029 4.18636 132.455 4.09996C132.88 4.01196 134.007 4.24636 134.197 4.20929C134.387 4.17023 135.164 4.26396 135.517 4.35983C135.517 4.35983 135.517 4.35983 135.845 4.38636C135.965 4.39583 135.965 4.39583 135.965 4.39583C136.151 4.21716 136.336 4.21196 136.38 4.38636C136.425 4.56089 136.775 4.99063 137.039 4.85303C137.301 4.71716 138.131 4.33329 138.345 4.24263C138.56 4.15303 140.065 4.13689 140.331 4.18636C140.596 4.23583 141.456 3.87289 141.787 3.84369C142.119 3.81196 143.244 3.86089 143.532 3.95729C143.82 4.05303 145.268 3.91969 146.016 3.90929C146.016 3.90929 146.016 3.9093 146.479 3.66916C146.893 3.45463 146.893 3.45463 146.893 3.45463C147.155 3.62756 147.473 3.84783 147.601 3.94263C147.727 4.03689 148.853 3.85569 149.429 3.70623C150.004 3.55569 151.779 3.59423 152.017 3.66916C152.256 3.7437 153.153 3.7489 153.488 3.69156C153.823 3.63583 154.999 3.55303 155.348 3.57969C155.696 3.60676 156.629 3.37449 156.821 3.29729C157.012 3.21716 157.549 3.51303 157.613 3.53329C157.613 3.53329 157.613 3.53329 157.66 3.51969C157.975 3.42756 158.277 3.27023 158.597 3.24529C158.879 3.22489 159.195 3.42756 159.465 3.38903C159.877 3.32916 159.877 3.32916 159.877 3.32916C160.337 3.29583 160.959 3.21556 161.256 3.15463C161.552 3.09316 162.241 3.39836 162.307 3.26916C162.307 3.26916 162.307 3.26916 162.4 3.17703C162.469 3.11036 162.469 3.11036 162.469 3.11036C162.595 3.07449 163.069 3.11196 163.525 3.19316C163.98 3.27596 166.007 3.04783 166.351 3.12396C166.351 3.12396 166.351 3.12396 166.625 3.23689C166.973 3.37969 166.973 3.37969 166.973 3.37969C167.259 3.22129 167.755 3.17596 168.075 3.27703C168.075 3.27703 168.075 3.27703 168.308 3.20929C168.716 3.08903 168.716 3.08903 168.716 3.08903C169.12 2.85303 169.644 2.72396 169.879 2.79996C170.113 2.87863 170.993 2.85049 171.288 2.75983C171.583 2.67023 172.18 2.69423 172.425 2.65463C172.669 2.61556 173.352 2.72396 173.565 2.78383C173.779 2.84263 174.404 2.71876 174.488 2.80929C174.571 2.90249 175.1 3.06769 175.471 2.96663C175.841 2.86663 178.024 2.91449 178.775 2.89063C179.528 2.86503 180.931 2.49316 181.219 2.42396C181.219 2.42396 181.219 2.42396 181.593 2.50929C182.313 2.66916 182.313 2.66916 182.313 2.66916C183.171 2.6505 184.136 2.63583 184.457 2.63956C184.457 2.63956 184.457 2.63956 184.78 2.52129C185.197 2.36769 185.197 2.36769 185.197 2.36769C185.747 2.35729 186.419 2.40103 186.689 2.46396C186.961 2.52649 187.903 2.39836 188.137 2.43849C188.137 2.43849 188.137 2.43849 188.355 2.48116C188.56 2.51969 188.56 2.5197 188.56 2.5197C188.776 2.55463 189.52 2.51969 190.212 2.44369C190.212 2.44369 190.212 2.44369 190.829 2.35303C191.355 2.27449 191.355 2.27449 191.355 2.27449C191.94 2.20516 192.463 2.14636 192.513 2.14369C192.564 2.14116 192.924 2.22129 193.244 2.27449C193.563 2.32756 194.597 2.38636 194.864 2.46249C195.131 2.53689 195.799 2.79316 195.891 2.66089C195.984 2.52756 196.444 2.36916 196.64 2.36249C196.833 2.35463 197.544 2.03956 197.949 2.0197C198.356 1.99996 199.96 1.97183 200.597 1.94529C201.235 1.91556 203.168 2.07596 203.459 2.12756C203.749 2.17863 204.599 1.84783 204.793 1.90783C204.989 1.96663 205.355 1.95729 205.483 1.99316C205.608 2.02916 206.541 1.87449 207.304 1.70623C207.304 1.70623 207.304 1.70623 208.012 1.77703C208.531 1.82756 208.531 1.82756 208.531 1.82756C208.96 1.64529 209.641 1.59729 210.045 1.72129C210.045 1.72129 210.045 1.72129 210.423 1.74529C210.807 1.77183 210.807 1.77183 210.807 1.77183C211.233 1.64636 211.808 1.69316 212.083 1.87596C212.359 2.05823 213.58 1.40783 214.221 1.29836C214.221 1.29836 214.221 1.29836 214.76 1.63849C214.807 1.66769 215.004 1.60249 215.064 1.53849C215.16 1.43849 215.16 1.43849 215.16 1.43849C215.216 1.29836 215.437 1.12916 215.652 1.06249C215.865 0.997292 216.612 1.27969 216.892 1.35303C217.171 1.42489 218.212 1.38636 218.484 1.45463C218.753 1.52129 219.341 1.41303 219.545 1.38796C219.751 1.36089 220.677 1.46916 221.057 1.53169C221.437 1.59423 222.771 1.32129 223.203 1.40356C223.203 1.40356 223.203 1.40356 223.372 1.27863C223.915 0.878626 224.101 1.56503 224.437 1.45303C224.788 1.33689 224.788 1.33689 224.788 1.33689C225.121 1.10249 225.639 0.867692 225.936 0.813025C226.235 0.759825 227.345 0.878627 227.636 0.931694C227.925 0.983827 228.955 0.960893 229.232 0.872893C229.509 0.785427 230.507 0.958228 230.775 1.05823C231.041 1.15983 232.064 1.05569 232.601 0.955693C232.601 0.955693 232.601 0.955693 233.16 1.14636C233.549 1.28116 234.116 1.26089 234.421 0.845293L235.569 0.677028C236.764 1.06396 238.011 0.983828 239.18 0.731694C239.635 0.631694 240.049 1.26663 240.5 0.663961C240.639 0.481161 241.396 0.573427 241.865 0.601027C242.128 0.61716 242.128 0.61716 242.128 0.61716C242.409 0.736893 242.743 0.795828 242.872 0.747828C242.999 0.699962 243.343 0.56396 243.607 0.41036C243.872 0.258227 244.601 0.79316 244.851 0.762493C245.099 0.73436 245.708 0.48796 245.827 0.460894C245.948 0.433294 246.496 0.694228 246.764 0.853028C246.764 0.853028 246.764 0.853028 247.012 0.853028C247.264 0.855695 247.507 0.659827 247.769 0.593161C248.205 0.482227 248.205 0.482227 248.205 0.482227C248.659 0.624894 249.139 0.769162 249.271 0.802495C249.403 0.836895 249.739 0.72236 249.899 0.63956C250.057 0.558226 250.625 0.753026 250.768 0.723959C250.768 0.723959 250.768 0.72396 250.875 0.660893C251.02 0.57596 251.147 0.362494 251.26 0.371827C251.567 0.397294 251.871 0.584895 252.163 0.569161C252.541 0.547828 252.9 0.348893 253.28 0.306227C253.617 0.271827 253.617 0.271827 253.617 0.271827C253.984 0.338493 254.519 0.301027 254.805 0.189027C254.805 0.189027 254.805 0.189026 255.099 0.395826C255.292 0.52916 255.292 0.52916 255.292 0.52916C255.616 0.550493 256.26 0.601026 256.721 0.641159C257.185 0.683826 258.591 0.409295 258.895 0.536895C259.199 0.665028 260.893 0.479694 261.971 0.689027C261.971 0.689027 261.971 0.689028 262.979 0.310361C263.275 0.199961 263.751 0.195828 264.037 0.315561C264.528 0.519695 264.528 0.519695 264.528 0.519695C264.992 0.394229 265.6 0.169162 265.877 0.0196953C265.877 0.0196953 265.877 0.0196932 266.128 0.0223598C266.376 0.0264932 266.628 0.199959 266.869 0.313025C267.008 0.379692 267.008 0.379692 267.008 0.379692C267.137 0.466625 267.959 0.593162 268.832 0.658229C269.707 0.723962 271.913 0.0639612 271.969 0.0879612C272.025 0.114495 272.133 0.230627 272.207 0.283827C272.28 0.336893 272.96 0.269159 273.359 0.213026C273.759 0.157293 275.109 0.0520931 275.473 0.0890265C275.836 0.12756 277.04 0.487959 277.34 0.613026C277.643 0.740092 278.609 0.430627 278.844 0.58796C279.08 0.743694 280.157 0.195827 280.644 -4.00543e-05C280.644 -4.00543e-05 280.644 -3.92795e-05 281.192 0.431694C281.431 0.619694 281.431 0.619695 281.431 0.619695C282.151 0.445295 283.281 0.28796 283.944 0.271827C283.944 0.271827 283.944 0.271827 284.543 0.29996C285.165 0.330627 285.165 0.330628 285.165 0.330628C285.836 0.469162 286.74 0.374492 287.173 0.118759C287.173 0.118759 287.173 0.11876 287.751 0.521294C288.197 0.83436 288.715 -0.057374 289.316 0.374493C289.816 0.735826 290.256 0.660894 290.687 0.298361C290.715 0.273427 290.812 0.278628 290.861 0.297295C291.269 0.443695 291.269 0.443694 291.269 0.443694C291.721 0.493161 292.235 0.574494 292.411 0.62236C292.587 0.671827 293.393 0.390627 293.78 0.306227C293.78 0.306227 293.78 0.306227 294.113 0.321294C294.801 0.350494 294.801 0.350493 294.801 0.350493C295.555 0.336893 296.817 0.30356 297.604 0.278626C297.604 0.278626 297.604 0.278627 298.325 0.29996C298.776 0.313027 298.776 0.313025 298.776 0.313025C299.267 0.427559 299.873 0.552093 300.121 0.589026C300.369 0.62756 300.981 0.448894 301.176 0.394227C301.372 0.33956 301.996 0.59836 302.168 0.62396C302.168 0.62396 302.168 0.623961 302.195 0.582228C302.564 0.0291611 302.564 0.0291595 302.564 0.0291595C302.991 0.32756 304.236 0.483827 304.431 0.638494Z" fill="#AC7D3B"/>
</svg>
